# xmcd CD database file
#
# Track frame offsets:
#	150
#	10285
#	24142
#	30435
#	39745
#	48330
#	54627
#	65150
#	90695
#	116412
#	150642
#	170525
#	196307
#	215642
#
# Disc length: 3322 seconds
#
# Revision: 0
# Processed by: cddbd v1.5.1PL0 Copyright (c) Steve Scherf et al.
# Submitted via: CDex 1.51
#
DISCID=b80cf80e
DTITLE=Dimiter Christoff - The Piano Music, Vol. 2
DYEAR=1996
DGENRE=Jazz
TTITLE0=Rain Hoods ... After The Storm: Oscuro
TTITLE1=Rain Hoods ... After The Storm: Nebbioso
TTITLE2=Rain Hoods ... After The Storm: Aggressivo
TTITLE3=Rain Hoods ... After The Storm: Credulo
TTITLE4=Rain Hoods ... After The Storm: Mendace
TTITLE5=Rain Hoods ... After The Storm: Selvatico
TTITLE6=Rain Hoods ... After The Storm: Disperato
TTITLE7=Sonata No. 6: Molt. poss. adagio, libero
TTITLE8=Sonata No. 6: Lo stesso ma un po'rapido
TTITLE9=Sonata No. 7: Caotico ed ardente
TTITLE10=Sonata No. 7: Piu caotico
TTITLE11=Sonata No. 8: Tenero ma poi tempestoso
TTITLE12=Sonata No. 8: Tempestoso ma poi vispo
TTITLE13=Toccata For All Soul's Day
EXTD=YEAR: 1996
EXTT0=
EXTT1=
EXTT2=
EXTT3=
EXTT4=
EXTT5=
EXTT6=
EXTT7=
EXTT8=
EXTT9=
EXTT10=
EXTT11=
EXTT12=
EXTT13=
PLAYORDER=
